# xmcd CD database file
#
# Track frame offsets:
#	182
#	39922
#	71407
#	162100
#	212797
#	263770
#
# Disc length: 4531 seconds
#
# Revision: 0
# Processed by: cddbd v1.5.2PL0 Copyright (c) Steve Scherf et al.
# Submitted via: CDex 1.51
#
DISCID=4911b106
DTITLE=Steve Cohn - The Beggar and The Robot In Diamonds
DYEAR=1993
DGENRE=Jazz
TTITLE0=The Beggar - 1st Movement
TTITLE1=The Beggar - 2nd Movement
TTITLE2=The Beggar - 3rd Movement
TTITLE3=The Robot In Diamonds - 1st Movement
TTITLE4=The Robot In Diamonds - 2nd Movement
TTITLE5=The Robot In Diamonds - 3rd Movement
EXTD=YEAR: 1993
EXTT0=
EXTT1=
EXTT2=
EXTT3=
EXTT4=
EXTT5=
PLAYORDER=
